<svg width="16" height="16" viewBox="0 0 16 16" fill="none" xmlns="http://www.w3.org/2000/svg">
<path fill-rule="evenodd" clip-rule="evenodd" d="M10 5.5C10 7.03089 8.9655 8 8 8C7.0345 8 6 7.03089 6 5.5C6 3.96911 7.0345 3 8 3C8.9655 3 10 3.96911 10 5.5ZM9.8213 8.28142C10.5378 7.64182 11 6.63388 11 5.5C11 3.567 9.65685 2 8 2C6.34315 2 5 3.567 5 5.5C5 6.63388 5.46216 7.64182 6.1787 8.28142C4.06366 8.95444 2.45736 10.7684 2.08296 13C2.0284 13.3252 2 13.6593 2 14H3H13H14C14 13.6593 13.9716 13.3252 13.917 13C13.5426 10.7684 11.9363 8.95444 9.8213 8.28142ZM8 9C5.58104 9 3.56329 10.7178 3.10002 13H12.9C12.4367 10.7178 10.419 9 8 9Z" fill="black"/>
</svg>
