<svg width="16" height="16" viewBox="0 0 16 16" fill="none" xmlns="http://www.w3.org/2000/svg">
<path d="M10.0975 6.4905H7.8035V2H10.0975C11.3355 2 12.3425 3.007 12.3425 4.245C12.3425 5.483 11.3355 6.4905 10.0975 6.4905ZM8.539 5.755H10.0975C10.93 5.755 11.607 5.0775 11.607 4.2455C11.607 3.4135 10.9295 2.736 10.0975 2.736H8.539V5.755ZM8.539 6.4905H6.2455C5.0075 6.4905 4.0005 5.4835 4.0005 4.2455C4.0005 3.0075 5.0075 2 6.2455 2H8.5395L8.539 6.4905ZM6.2455 2.7355C5.413 2.7355 4.736 3.413 4.736 4.245C4.736 5.077 5.413 5.755 6.2455 5.755H7.804V2.7355H6.2455ZM8.539 10.245H6.2455C5.0075 10.245 4.0005 9.238 4.0005 8C4.0005 6.762 5.0075 5.755 6.2455 5.755H8.539V10.245ZM6.2455 6.4905C5.413 6.4905 4.736 7.168 4.736 8C4.736 8.832 5.4135 9.5095 6.2455 9.5095H7.804L7.8035 6.4905H6.2455ZM6.2575 14C5.013 14 4 12.993 4 11.755C4 10.517 5.0075 9.5095 6.2455 9.5095L8.539 9.51V11.7305C8.539 12.982 7.5155 14 6.2575 14ZM6.2455 10.245C5.84532 10.2455 5.46168 10.4047 5.17871 10.6877C4.89574 10.9707 4.73653 11.3543 4.736 11.7545C4.736 12.587 5.4185 13.264 6.258 13.264C7.1105 13.264 7.8045 12.576 7.8045 11.73V10.245H6.2455ZM10.0975 10.245H10.0485C8.8105 10.245 7.8035 9.238 7.8035 8C7.8035 6.762 8.8105 5.755 10.0485 5.755H10.0975C11.3355 5.755 12.3425 6.762 12.3425 8C12.3425 9.238 11.3355 10.245 10.0975 10.245ZM10.049 6.4905C9.2165 6.4905 8.5395 7.168 8.5395 8C8.5395 8.832 9.217 9.5095 10.049 9.5095H10.098C10.9305 9.5095 11.6075 8.832 11.6075 8C11.6075 7.168 10.9295 6.4905 10.0975 6.4905H10.049Z" fill="black"/>
</svg>
