<svg width="16" height="16" viewBox="0 0 16 16" fill="none" xmlns="http://www.w3.org/2000/svg">
<path d="M13.1874 5.42974C13.1984 4.87992 13.0772 4.32276 12.9792 3.77539C12.945 3.58681 12.8776 3.40435 12.809 3.22557C12.7588 3.09087 12.6082 3.00515 12.4698 3.03454C12.3804 3.05413 12.2996 3.0725 12.2225 3.09821C11.4069 3.36639 10.6502 3.75947 9.92523 4.215C9.82726 4.27622 9.68644 4.29827 9.56766 4.28969C9.28601 4.26888 9.00682 4.19908 8.7264 4.18561C8.02963 4.15254 7.33409 4.17336 6.64345 4.29459C6.54793 4.31174 6.42058 4.29459 6.34099 4.24316C5.54993 3.7313 4.72581 3.29292 3.79883 3.04678C3.65923 3.01005 3.51719 3.02964 3.48168 3.08474C3.45963 3.11903 3.44127 3.15332 3.43024 3.19128C3.32983 3.54272 3.21105 3.89294 3.1535 4.25173C3.0837 4.68032 3.01757 5.12238 3.05064 5.54975C3.07145 5.81915 2.99676 5.98446 2.84981 6.17304C2.35632 6.80735 2.13468 7.53596 2.12121 8.33436C2.10896 9.01765 2.19958 9.68258 2.40775 10.3365C2.72613 11.3369 3.34208 12.0876 4.26783 12.5762C5.0295 12.9778 5.85974 13.1321 6.70957 13.1627C7.47491 13.1897 8.2427 13.1664 9.00804 13.1713C9.77583 13.1762 10.5338 13.1076 11.2685 12.8676C12.0045 12.6276 12.64 12.2419 13.1348 11.6333C13.8487 10.7553 14.0703 9.72054 14.1156 8.62458C14.1511 7.78699 13.9797 6.99961 13.4899 6.31386C13.2915 6.03589 13.1801 5.79711 13.1874 5.42974ZM11.7082 11.8476C11.3788 12.1329 10.9759 12.2676 10.5632 12.3656C9.75379 12.559 8.9309 12.6068 8.10433 12.5713C7.28756 12.6068 6.47936 12.5554 5.68463 12.3692C5.09807 12.2309 4.56295 11.9994 4.18946 11.4961C3.59556 10.6953 3.44371 9.17072 4.42457 8.33926C4.67438 8.12741 4.95358 7.99271 5.28298 7.97189C5.64667 7.94863 6.01036 7.90332 6.37405 7.90822C7.29123 7.91924 8.20841 7.96455 9.1256 7.97189C9.54439 7.97434 9.96564 7.8776 10.382 7.9021C10.7604 7.92536 11.1571 7.99394 11.5 8.147C12.0719 8.40048 12.3792 8.91479 12.4723 9.51604C12.6119 10.4087 12.4294 11.2231 11.7082 11.8476Z" fill="black"/>
<path d="M10.2129 11.2708C10.6958 11.2708 11.0873 10.7478 11.0873 10.1026C11.0873 9.45741 10.6958 8.93438 10.2129 8.93438C9.73007 8.93438 9.33862 9.45741 9.33862 10.1026C9.33862 10.7478 9.73007 11.2708 10.2129 11.2708Z" fill="black"/>
<path d="M6.04205 11.2708C6.52493 11.2708 6.91637 10.7478 6.91637 10.1026C6.91637 9.45741 6.52493 8.93438 6.04205 8.93438C5.55917 8.93438 5.16772 9.45741 5.16772 10.1026C5.16772 10.7478 5.55917 11.2708 6.04205 11.2708Z" fill="black"/>
</svg>
