<svg width="16" height="16" viewBox="0 0 16 16" fill="none" xmlns="http://www.w3.org/2000/svg">
<path fill-rule="evenodd" clip-rule="evenodd" d="M13.1874 5.42974C13.1969 4.95736 13.1087 4.47956 13.0216 4.00721L13.0216 4.00705C13.0073 3.92966 12.993 3.85243 12.9792 3.77538C12.945 3.5868 12.8776 3.40435 12.809 3.22556C12.7588 3.09086 12.6082 3.00515 12.4698 3.03453C12.3804 3.05413 12.2996 3.0725 12.2225 3.09821C11.4069 3.36639 10.6502 3.75946 9.92523 4.21499C9.82726 4.27622 9.68644 4.29826 9.56766 4.28969C9.43636 4.27999 9.30559 4.25964 9.17499 4.23931L9.17497 4.23931C9.02542 4.21604 8.87608 4.1928 8.7264 4.18561C8.02963 4.15254 7.33409 4.17336 6.64345 4.29459C6.54793 4.31173 6.42058 4.29459 6.34099 4.24316C5.54993 3.7313 4.72581 3.29291 3.79883 3.04678C3.65923 3.01004 3.51719 3.02964 3.48168 3.08474C3.45963 3.11903 3.44127 3.15332 3.43024 3.19128C3.40745 3.27106 3.38371 3.35079 3.35995 3.43056C3.27906 3.70218 3.19799 3.97439 3.1535 4.25173C3.0837 4.68032 3.01757 5.12238 3.05064 5.54975C3.07145 5.81915 2.99676 5.98446 2.84981 6.17304C2.35632 6.80735 2.13468 7.53596 2.12121 8.33436C2.10896 9.01765 2.19958 9.68258 2.40775 10.3365C2.72613 11.3369 3.34208 12.0876 4.26783 12.5762C5.0295 12.9778 5.85974 13.1321 6.70957 13.1627C7.19989 13.18 7.69122 13.1766 8.18226 13.1733H8.18233C8.45773 13.1714 8.73304 13.1695 9.00804 13.1713C9.77583 13.1762 10.5338 13.1076 11.2685 12.8676C12.0045 12.6276 12.64 12.2419 13.1348 11.6333C13.8487 10.7553 14.0703 9.72054 14.1156 8.62457C14.1511 7.78699 13.9797 6.99961 13.4899 6.31386C13.2915 6.03589 13.1801 5.7971 13.1874 5.42974ZM11.7082 11.8476C11.3788 12.1329 10.9759 12.2676 10.5632 12.3656C9.75379 12.559 8.9309 12.6068 8.10433 12.5713C7.28756 12.6068 6.47936 12.5554 5.68463 12.3692C5.09807 12.2309 4.56295 11.9994 4.18946 11.4961C3.59556 10.6953 3.44371 9.17072 4.42457 8.33926C4.67438 8.12741 4.95358 7.99271 5.28298 7.97189C5.39391 7.9648 5.50484 7.95565 5.61577 7.9465L5.61585 7.9465C5.86858 7.92565 6.12132 7.90481 6.37405 7.90822C6.8093 7.91345 7.24454 7.9264 7.67979 7.93935L7.67987 7.93935C8.16178 7.95369 8.64369 7.96803 9.1256 7.97189C9.31422 7.973 9.50334 7.95398 9.69228 7.93498C9.92285 7.91179 10.1532 7.88863 10.382 7.90209C10.7604 7.92536 11.1571 7.99393 11.5 8.147C12.0719 8.40048 12.3792 8.91479 12.4723 9.51604C12.6119 10.4087 12.4294 11.2231 11.7082 11.8476ZM10.2129 11.2708C10.6958 11.2708 11.0873 10.7478 11.0873 10.1026C11.0873 9.45741 10.6958 8.93439 10.2129 8.93439C9.73007 8.93439 9.33862 9.45741 9.33862 10.1026C9.33862 10.7478 9.73007 11.2708 10.2129 11.2708ZM6.91637 10.1026C6.91637 10.7478 6.52493 11.2708 6.04205 11.2708C5.55917 11.2708 5.16772 10.7478 5.16772 10.1026C5.16772 9.45741 5.55917 8.93439 6.04205 8.93439C6.52493 8.93439 6.91637 9.45741 6.91637 10.1026Z" fill="black"/>
</svg>
