<svg width="16" height="16" viewBox="0 0 16 16" fill="none" xmlns="http://www.w3.org/2000/svg">
<path fill-rule="evenodd" clip-rule="evenodd" d="M13 8C13 10.7614 10.7614 13 8 13C5.23858 13 3 10.7614 3 8C3 5.23858 5.23858 3 8 3C10.7614 3 13 5.23858 13 8ZM14 8C14 11.3137 11.3137 14 8 14C4.68629 14 2 11.3137 2 8C2 4.68629 4.68629 2 8 2C11.3137 2 14 4.68629 14 8ZM7.68848 8.38281C7.59994 8.59896 7.55566 8.88932 7.55566 9.25391H8.55566L8.57129 9.01562C8.59994 8.76042 8.71322 8.53776 8.91113 8.34766L9.22754 8.04688C9.47494 7.80729 9.64811 7.58984 9.74707 7.39453C9.84603 7.19661 9.89551 6.98698 9.89551 6.76562C9.89551 6.27865 9.74316 5.90234 9.43848 5.63672C9.13379 5.36849 8.7054 5.23438 8.15332 5.23438C7.60645 5.23438 7.17415 5.375 6.85645 5.65625C6.54134 5.9375 6.38119 6.32682 6.37598 6.82422H7.50879C7.514 6.61589 7.57389 6.45312 7.68848 6.33594C7.80566 6.21615 7.96061 6.15625 8.15332 6.15625C8.55957 6.15625 8.7627 6.3763 8.7627 6.81641C8.7627 6.96224 8.72363 7.10156 8.64551 7.23438C8.56738 7.36458 8.40983 7.53516 8.17285 7.74609C7.93848 7.95443 7.77702 8.16667 7.68848 8.38281ZM7.61816 10.0234C7.50098 10.1354 7.44238 10.2786 7.44238 10.4531C7.44238 10.625 7.49967 10.7669 7.61426 10.8789C7.73145 10.9909 7.88509 11.0469 8.0752 11.0469C8.2653 11.0469 8.41764 10.9909 8.53223 10.8789C8.64941 10.7669 8.70801 10.625 8.70801 10.4531C8.70801 10.2786 8.64811 10.1354 8.52832 10.0234C8.41113 9.90885 8.26009 9.85156 8.0752 9.85156C7.8903 9.85156 7.73796 9.90885 7.61816 10.0234Z" fill="black"/>
</svg>
