<svg width="52" height="20" viewBox="0 0 52 20" fill="none" xmlns="http://www.w3.org/2000/svg">
<mask id="path-1-inside-1" fill="white">
<path fill-rule="evenodd" clip-rule="evenodd" d="M0.641113 2.64102C0.641113 1.53645 1.53655 0.641022 2.64111 0.641022H49.3591C50.4636 0.641022 51.3591 1.53645 51.3591 2.64102V17.3077C51.3591 18.4123 50.4636 19.3077 49.3591 19.3077H2.64111C1.53655 19.3077 0.641113 18.4123 0.641113 17.3077V2.64102ZM38.1796 2.64102L2.64111 2.64102V17.3077L38.1796 17.3077V2.64102ZM24 5.99997H16V14H24V5.99997ZM16 3.99997H14V5.99997V14V16H16H24H26V14V5.99997V3.99997H24H16Z"/>
</mask>
<path fill-rule="evenodd" clip-rule="evenodd" d="M0.641113 2.64102C0.641113 1.53645 1.53655 0.641022 2.64111 0.641022H49.3591C50.4636 0.641022 51.3591 1.53645 51.3591 2.64102V17.3077C51.3591 18.4123 50.4636 19.3077 49.3591 19.3077H2.64111C1.53655 19.3077 0.641113 18.4123 0.641113 17.3077V2.64102ZM38.1796 2.64102L2.64111 2.64102V17.3077L38.1796 17.3077V2.64102ZM24 5.99997H16V14H24V5.99997ZM16 3.99997H14V5.99997V14V16H16H24H26V14V5.99997V3.99997H24H16Z" fill="#51C49F"/>
<path d="M2.64111 2.64102V0.641021L0.641113 0.641021L0.641113 2.64102H2.64111ZM38.1796 2.64102H40.1796V0.641022L38.1796 0.641021V2.64102ZM2.64111 17.3077H0.641113V19.3077H2.64111L2.64111 17.3077ZM38.1796 17.3077V19.3077H40.1796V17.3077H38.1796ZM16 5.99997V3.99997H14V5.99997H16ZM24 5.99997H26V3.99997H24V5.99997ZM16 14H14V16H16V14ZM24 14V16H26V14H24ZM14 3.99997V1.99997H12V3.99997H14ZM14 16H12V18H14V16ZM26 16V18H28V16H26ZM26 3.99997H28V1.99997H26V3.99997ZM2.64111 -1.35898C0.431979 -1.35898 -1.35889 0.431877 -1.35889 2.64102H2.64111V2.64102V-1.35898ZM49.3591 -1.35898H2.64111V2.64102H49.3591V-1.35898ZM53.3591 2.64102C53.3591 0.431876 51.5682 -1.35898 49.3591 -1.35898V2.64102H53.3591ZM53.3591 17.3077V2.64102H49.3591V17.3077H53.3591ZM49.3591 21.3077C51.5682 21.3077 53.3591 19.5168 53.3591 17.3077H49.3591V17.3077V21.3077ZM2.64111 21.3077H49.3591V17.3077H2.64111V21.3077ZM-1.35889 17.3077C-1.35889 19.5168 0.431984 21.3077 2.64111 21.3077V17.3077H2.64111H-1.35889ZM-1.35889 2.64102V17.3077H2.64111V2.64102H-1.35889ZM2.64111 4.64102L38.1796 4.64102V0.641021L2.64111 0.641021V4.64102ZM4.64111 17.3077V2.64102H0.641113V17.3077H4.64111ZM38.1796 15.3077L2.64111 15.3077L2.64111 19.3077L38.1796 19.3077V15.3077ZM40.1796 17.3077V2.64102H36.1796V17.3077H40.1796ZM16 7.99997H24V3.99997H16V7.99997ZM18 14V5.99997H14V14H18ZM24 12H16V16H24V12ZM22 5.99997V14H26V5.99997H22ZM14 5.99997H16V1.99997H14V5.99997ZM16 5.99997V3.99997H12V5.99997H16ZM16 14V5.99997H12V14H16ZM16 16V14H12V16H16ZM16 14H14V18H16V14ZM24 14H16V18H24V14ZM26 14H24V18H26V14ZM24 14V16H28V14H24ZM24 5.99997V14H28V5.99997H24ZM24 3.99997V5.99997H28V3.99997H24ZM24 5.99997H26V1.99997H24V5.99997ZM16 5.99997H24V1.99997H16V5.99997Z" fill="black" mask="url(#path-1-inside-1)"/>
</svg>
