<svg width="16" height="16" viewBox="0 0 16 16" fill="none" xmlns="http://www.w3.org/2000/svg">
<path fill-rule="evenodd" clip-rule="evenodd" d="M13 3H3V13H13V3ZM10.8574 3.71421H5.14307V12.2856H10.8574V3.71421ZM3.71436 5.85716H4.42864V6.57144H3.71436V5.85716ZM12.2856 5.14284H11.5713V5.85713H12.2856V5.14284ZM3.71436 4.42858H4.42864V5.14286H3.71436V4.42858ZM12.2856 3.71421H11.5713V4.4285H12.2856V3.71421ZM3.71436 7.28579H4.42864V8.00007H3.71436V7.28579ZM12.2856 6.57142H11.5713V7.28571H12.2856V6.57142ZM3.71436 8.71421H4.42864V9.4285H3.71436V8.71421ZM12.2856 9.42858H11.5713V10.1429H12.2856V9.42858ZM11.5713 8H12.2856V8.71429H11.5713V8ZM4.42864 11.5714H3.71436V12.2857H4.42864V11.5714ZM11.5713 10.8572H12.2856V11.5714H11.5713V10.8572ZM4.42864 10.1428H3.71436V10.8571H4.42864V10.1428Z" fill="black"/>
</svg>
