<svg width="16" height="16" viewBox="0 0 16 16" fill="none" xmlns="http://www.w3.org/2000/svg">
<path fill-rule="evenodd" clip-rule="evenodd" d="M8.00008 2.5H7.79297L7.64652 2.64645L2.64652 7.64645L2.29297 8L2.64652 8.35355L7.64652 13.3536L8.00008 13.7071L8.35363 13.3536L13.3536 8.35355L13.5001 8.20711V8V3V2.5H13.0001H8.00008ZM3.70718 8L8.20718 3.5H12.5001V7.79289L8.00008 12.2929L3.70718 8ZM10.0001 5C9.44779 5 9.00008 5.44772 9.00008 6C9.00008 6.55228 9.44779 7 10.0001 7C10.5524 7 11.0001 6.55228 11.0001 6C11.0001 5.44772 10.5524 5 10.0001 5Z" fill="black"/>
</svg>
