<svg width="16" height="16" viewBox="0 0 16 16" fill="none" xmlns="http://www.w3.org/2000/svg">
<path d="M12.5335 4.59985C12.5376 4.61065 12.54 4.61786 12.541 4.62092C12.5411 4.62101 12.5411 4.62109 12.5411 4.62118L12.6379 4.95999L12.7076 4.96369C12.4177 5.44654 12.3459 6.00776 12.4564 6.44759C12.5037 6.63558 12.5719 6.79411 12.6363 6.93187C12.6579 6.97809 12.678 7.02003 12.6973 7.06016C12.7394 7.1479 12.7773 7.22696 12.8172 7.32308C12.9213 7.5739 13.0236 7.91236 13.0445 8.50122L13.0446 8.50139C13.1018 10.0947 11.6834 11.5661 9.9976 11.5661C9.84508 11.5661 9.62098 11.5676 9.32493 11.5705L9.1407 11.5723L9.00168 11.6932C7.82143 12.7197 5.86292 13.6265 2.93078 13.0812C3.26339 12.702 3.72239 12.179 4.24302 11.5865C5.3041 10.379 6.62065 8.88344 7.645 7.72868C7.65694 7.71557 7.66736 7.70443 7.67711 7.69468L7.68881 7.68298L7.6997 7.67054C7.7605 7.60112 7.82167 7.53175 7.88293 7.46229C8.42661 6.84575 8.97765 6.22087 9.34221 5.47325L9.35473 5.44756L9.36425 5.42061C9.6436 4.62965 9.48769 3.97384 9.22666 3.50044C9.67505 3.50317 10.2489 3.51917 10.9152 3.56495L10.9157 3.56497C11.6265 3.61321 12.0262 3.90083 12.2512 4.15071C12.3679 4.28024 12.4432 4.40634 12.4884 4.49732C12.5108 4.54256 12.5254 4.57818 12.5335 4.59985Z" stroke="black"/>
</svg>
